<svg width="409" height="105" viewBox="0 0 409 105" fill="none" xmlns="http://www.w3.org/2000/svg">
<path d="M21.7324 54.1444L3.68426 71.7523C-9.96181 35.6561 16.0097 0 53.4267 0C89.3468 0 113.293 38.7374 100.528 70.4317L84.2405 53.7042L91.7239 45.7806L86.4415 40.9384L78.9582 48.862L53.4267 22.8903L26.5746 49.3022L19.0912 40.9384L13.8088 45.7806L21.7324 54.1444Z" fill="white"/>
<path d="M53.4267 33.0149L31.4166 54.5846L38.0195 62.068L52.1059 47.5414L66.6324 62.068L74.1158 54.1444L53.4267 33.0149Z" fill="white"/>
<path d="M52.1059 57.2258L42.8617 66.9101L52.1059 77.4749L62.2304 66.9101L52.1059 57.2258Z" fill="white"/>
<path d="M78.9582 58.9866L55.6275 84.0779V104.327C76.757 104.327 92.3107 86.1321 97.4463 77.0347L78.9582 58.9866Z" fill="white"/>
<path d="M26.5743 59.4268L7.20557 78.7955C18.4746 98.8685 39.4868 104.18 48.5842 104.327V84.0779L26.5743 59.4268Z" fill="white"/>
<path d="M145.61 76L165.252 32.385H180.319L199.961 76H189.347L185.199 66.789H160.372L156.224 76H145.61ZM163.91 58.859H181.661L173.182 40.01H172.389L163.91 58.859ZM230.615 76L210.973 32.385H221.587L237.752 68.375H238.545L254.71 32.385H265.324L245.682 76H230.615ZM301.413 76L281.771 32.385H292.385L308.55 68.375H309.343L325.508 32.385H336.122L316.48 76H301.413ZM375.688 76V60.445L352.569 32.385H364.647L380.568 52.149L396.428 32.385H408.506L385.509 60.384V76H375.688Z" fill="white"/>
</svg>
