<svg width="3195" height="647" viewBox="0 0 3195 647" fill="none" xmlns="http://www.w3.org/2000/svg">
<path d="M864.927 210.703H899.649L996.807 436.238H950.936L929.911 384.632H832.116L811.728 436.238H766.812L864.927 210.703ZM915.895 350.229L881.173 258.486L845.813 350.229H915.895Z" fill="white"/>
<path d="M1039.86 210.703H1086.05L1147.53 381.128L1210.92 210.703H1254.25L1163.14 436.238H1128.42L1039.86 210.703Z" fill="white"/>
<path d="M1397.69 210.703H1432.42L1529.57 436.238H1483.7L1462.68 384.632H1364.88L1344.49 436.238H1299.58L1397.69 210.703ZM1448.66 350.229L1413.94 258.486L1378.58 350.229H1448.66Z" fill="white"/>
<path d="M1618.35 210.703H1658.49V399.923H1754.37V436.238H1618.35V210.703Z" fill="white"/>
<path d="M1920.19 210.703H1954.92L2052.07 436.238H2006.2L1985.18 384.632H1887.38L1866.99 436.238H1822.08L1920.19 210.703ZM1971.16 350.229L1936.44 258.486L1901.08 350.229H1971.16Z" fill="white"/>
<path d="M2140.85 210.703H2194.05L2303.31 378.261H2303.95V210.703H2344.08V436.238H2293.12L2181.62 263.264H2180.99V436.238H2140.85V210.703Z" fill="white"/>
<path d="M2612.91 263.582C2604.63 254.663 2596.56 248.717 2588.7 245.743C2581.05 242.77 2573.3 241.284 2565.45 241.284C2553.77 241.284 2543.15 243.407 2533.59 247.655C2524.25 251.69 2516.18 257.424 2509.38 264.857C2502.58 272.077 2497.28 280.572 2493.45 290.341C2489.84 300.11 2488.04 310.622 2488.04 321.877C2488.04 333.982 2489.84 345.132 2493.45 355.325C2497.28 365.519 2502.58 374.332 2509.38 381.765C2516.18 389.198 2524.25 395.038 2533.59 399.286C2543.15 403.533 2553.77 405.657 2565.45 405.657C2574.58 405.657 2583.39 403.533 2591.89 399.286C2600.59 394.826 2608.66 387.818 2616.1 378.261L2649.22 401.834C2639.03 415.85 2626.61 426.044 2611.95 432.415C2597.3 438.786 2581.69 441.972 2565.13 441.972C2547.71 441.972 2531.68 439.211 2517.03 433.689C2502.58 427.955 2490.05 419.992 2479.44 409.798C2469.03 399.392 2460.85 386.968 2454.91 372.527C2448.96 358.086 2445.99 342.052 2445.99 324.426C2445.99 306.375 2448.96 290.022 2454.91 275.369C2460.85 260.503 2469.03 247.867 2479.44 237.461C2490.05 227.055 2502.58 219.091 2517.03 213.57C2531.68 207.836 2547.71 204.969 2565.13 204.969C2580.42 204.969 2594.54 207.73 2607.49 213.251C2620.66 218.56 2632.87 227.692 2644.13 240.647L2612.91 263.582Z" fill="white"/>
<path d="M2739.88 210.703H2780.01V300.534H2885.45V210.703H2925.59V436.238H2885.45V336.849H2780.01V436.238H2739.88V210.703Z" fill="white"/>
<path d="M3039.7 210.703H3189.1V247.018H3079.84V302.446H3183.37V338.761H3079.84V399.923H3194.84V436.238H3039.7V210.703Z" fill="white"/>
<path fill-rule="evenodd" clip-rule="evenodd" d="M647 323.5C647 502.164 502.164 647 323.5 647C144.836 647 0 502.164 0 323.5C0 144.836 144.836 0 323.5 0C502.164 0 647 144.836 647 323.5ZM231.83 452.23H169.048C155.856 452.23 149.339 452.23 145.365 449.687C141.074 446.905 138.451 442.296 138.133 437.21C137.895 432.521 141.153 426.799 147.67 415.355L302.687 142.116C309.283 130.513 312.621 124.712 316.833 122.566C321.363 120.262 326.767 120.262 331.297 122.566C335.509 124.712 338.847 130.513 345.443 142.116L377.311 197.746L377.474 198.03L377.474 198.03C384.598 210.478 388.211 216.79 389.788 223.415C391.536 230.647 391.536 238.276 389.788 245.508C388.199 252.184 384.622 258.542 377.39 271.178L295.964 415.117L295.753 415.486C288.581 428.036 284.947 434.396 279.91 439.197C274.427 444.442 267.831 448.256 260.599 450.402C254.003 452.23 246.612 452.23 231.83 452.23ZM390.376 452.237H480.338H480.338C493.61 452.237 500.285 452.237 504.259 449.615C508.55 446.833 511.252 442.144 511.491 437.058C511.721 432.524 508.533 427.023 502.286 416.245C502.073 415.877 501.856 415.504 501.636 415.124L456.576 338.037L456.063 337.17C449.731 326.461 446.533 321.054 442.43 318.964C437.9 316.659 432.576 316.659 428.046 318.964C423.913 321.109 420.575 326.752 413.979 338.116L369.078 415.203L368.924 415.469C362.351 426.815 359.066 432.485 359.303 437.138C359.621 442.224 362.243 446.913 366.535 449.694C370.429 452.237 377.104 452.237 390.376 452.237Z" fill="white"/>
</svg>
